HIERARCHY
ROOT Hips
{
	OFFSET 0.000000 0.000000 0.000000
	CHANNELS 6 Xposition Yposition Zposition Zrotation Yrotation Xrotation 
	JOINT LowerBack
	{
		OFFSET 0.000000 0.000000 0.000000
		CHANNELS 3 Zrotation Yrotation Xrotation
		JOINT Spine
		{
			OFFSET 0.028270 2.035590 -0.193380
			CHANNELS 3 Zrotation Yrotation Xrotation
			JOINT Spine1
			{
				OFFSET 0.056720 2.048850 -0.042750
				CHANNELS 3 Zrotation Yrotation Xrotation
				JOINT Neck
				{
					OFFSET 0.000000 0.000000 0.000000
					CHANNELS 3 Zrotation Yrotation Xrotation
					JOINT Neck1
					{
						OFFSET -0.054170 1.746240 0.172020
						CHANNELS 3 Zrotation Yrotation Xrotation
						JOINT Head
						{
							OFFSET 0.104070 1.761360 -0.123970
							CHANNELS 3 Zrotation Yrotation Xrotation
							End Site
							{
								OFFSET 0.000000 0.000000 0.000000
							}
						}
					}
				}
				JOINT LeftShoulder
				{
					OFFSET 0.000000 0.000000 0.000000
					CHANNELS 3 Zrotation Yrotation Xrotation
					JOINT LeftArm
					{
						OFFSET 3.362410 1.200890 -0.311210
						CHANNELS 3 Zrotation Yrotation Xrotation
						JOINT LeftForeArm
						{
							OFFSET 4.983000 -0.000000 -0.000000
							CHANNELS 3 Zrotation Yrotation Xrotation
							JOINT LeftHand
							{
								OFFSET 3.483560 -0.000000 -0.000000
								CHANNELS 3 Zrotation Yrotation Xrotation
								JOINT LeftFingerBase
								{
									OFFSET 0.000000 0.000000 0.000000
									CHANNELS 3 Zrotation Yrotation Xrotation
									JOINT LeftHandIndex1
									{
										OFFSET 0.715260 -0.000000 -0.000000
										CHANNELS 3 Zrotation Yrotation Xrotation
										End Site
										{
											OFFSET 0.000000 0.000000 0.000000
										}
									}
								}
								JOINT LThumb
								{
									OFFSET 0.000000 0.000000 0.000000
									CHANNELS 3 Zrotation Yrotation Xrotation
									End Site
									{
										OFFSET 0.000000 0.000000 0.000000
									}
								}
							}
						}
					}
				}
				JOINT RightShoulder
				{
					OFFSET 0.000000 0.000000 0.000000
					CHANNELS 3 Zrotation Yrotation Xrotation
					JOINT RightArm
					{
						OFFSET -3.136600 1.374050 -0.404650
						CHANNELS 3 Zrotation Yrotation Xrotation
						JOINT RightForeArm
						{
							OFFSET -5.241900 -0.000000 -0.000000
							CHANNELS 3 Zrotation Yrotation Xrotation
							JOINT RightHand
							{
								OFFSET -3.444170 -0.000000 -0.000000
								CHANNELS 3 Zrotation Yrotation Xrotation
								JOINT RightFingerBase
								{
									OFFSET 0.000000 0.000000 0.000000
									CHANNELS 3 Zrotation Yrotation Xrotation
									JOINT RightHandIndex1
									{
										OFFSET -0.622530 -0.000000 -0.000000
										CHANNELS 3 Zrotation Yrotation Xrotation
										End Site
										{
											OFFSET 0.000000 0.000000 0.000000
										}
									}
								}
								JOINT RThumb
								{
									OFFSET 0.000000 0.000000 0.000000
									CHANNELS 3 Zrotation Yrotation Xrotation
									End Site
									{
										OFFSET 0.000000 0.000000 0.000000
									}
								}
							}
						}
					}
				}
			}
		}
	}
}
}
MOTION
Frames: 14
Frame Time: 0.008333
16.471781 16.508654 2.091900 148.200431 -84.544152 -99.684835 0.661215 -1.504120 -2.927447 -0.790339 -1.719112 -3.787634 -5.958509 -1.940619 0.038761 8.688565 -2.265026 -6.813480 -3.539058 -0.255831 -0.205390 0.000000 0.000000 0.000000 -1.905485 -2.446881 3.807705 -72.932104 -8.249959 7.544917 -2.552828 -14.609744 -0.003405 2.814763 -2.187908 -0.058145 -0.067272 0.136162 -0.000000 0.000000 0.000000 0.000000 0.000000 0.000000 0.000000 16.718729 -0.883647 3.341538 71.340583 13.615574 -4.705211 2.205354 15.441968 0.001983 -2.875994 8.048027 -0.212832 0.080456 -0.201574 0.000000 0.000000 0.000000 0.000000 0.000000 0.000000 0.000000 
16.443938 16.427125 2.089164 146.022674 -84.501279 -96.405250 0.589822 -1.532088 -3.181742 -0.809373 -1.750300 -3.851058 -5.925169 -1.974493 0.034496 8.698324 -2.387951 -6.995412 -3.520476 -0.252193 -0.269835 0.000000 0.000000 0.000000 -1.924412 -2.449756 3.861326 -72.899132 -7.884791 8.070630 -2.534810 -14.877118 -0.003175 2.637273 -2.077765 -0.051944 -0.066068 0.136596 -0.000000 0.000000 0.000000 0.000000 0.000000 0.000000 0.000000 16.775909 -0.969525 3.407355 71.229086 13.105654 -4.165195 2.192183 15.734875 0.002103 -2.755600 7.926300 -0.201130 0.079756 -0.202282 0.000000 0.000000 0.000000 0.000000 0.000000 0.000000 0.000000 
16.417233 16.338736 2.086820 143.846914 -84.454413 -93.144224 0.523739 -1.559941 -3.403354 -0.827864 -1.780718 -3.902406 -5.892071 -2.006893 0.044450 8.717115 -2.585450 -7.206047 -3.501687 -0.248094 -0.343977 0.000000 0.000000 0.000000 -1.951957 -2.376183 3.911106 -72.846756 -7.647304 8.741097 -2.519476 -15.146745 -0.002939 2.461779 -1.975674 -0.046242 -0.065070 0.137380 -0.000000 0.000000 0.000000 0.000000 0.000000 0.000000 0.000000 16.857511 -1.126960 3.470078 71.092472 12.700671 -3.466456 2.180773 16.038274 0.002171 -2.664267 7.792239 -0.191428 0.079490 -0.202928 0.000000 0.000000 0.000000 0.000000 0.000000 0.000000 0.000000 
16.391253 16.242576 2.084411 141.561311 -84.391077 -89.788212 0.449201 -1.590729 -3.615801 -0.848724 -1.813208 -3.959355 -5.858419 -2.041832 0.024937 8.725339 -2.699103 -7.383092 -3.484378 -0.244427 -0.409193 0.000000 0.000000 0.000000 -1.973434 -2.412486 3.968510 -72.780690 -7.301430 9.366365 -2.502120 -15.552557 -0.002699 2.276666 -1.866773 -0.040639 -0.063790 0.138474 -0.000000 0.000000 0.000000 0.000000 0.000000 0.000000 0.000000 16.923081 -1.194414 3.538072 70.969681 12.192961 -2.874117 2.163514 16.437613 0.002239 -2.544307 7.664989 -0.180027 0.078554 -0.204160 0.000000 0.000000 0.000000 0.000000 0.000000 0.000000 0.000000 
16.366186 16.138891 2.082392 139.272478 -84.320591 -86.453104 0.378568 -1.622128 -3.801388 -0.869112 -1.845769 -4.008377 -5.824752 -2.076445 0.008637 8.735256 -2.845003 -7.570951 -3.467109 -0.240548 -0.478626 0.000000 0.000000 0.000000 -2.002305 -2.422064 4.024401 -72.695658 -7.019211 10.075253 -2.486372 -15.986094 -0.002446 2.091684 -1.764863 -0.035434 -0.062579 0.139877 -0.000000 0.000000 0.000000 0.000000 0.000000 0.000000 0.000000 16.997952 -1.291514 3.604709 70.834836 11.739349 -2.217166 2.145995 16.849119 0.002267 -2.445235 7.540497 -0.170425 0.077826 -0.205537 0.000000 0.000000 0.000000 0.000000 0.000000 0.000000 0.000000 
16.341954 16.027462 2.080697 136.963644 -84.241797 -83.127624 0.311076 -1.654675 -3.964816 -0.889085 -1.879033 -4.053677 -5.791172 -2.111664 -0.015713 8.741032 -2.979439 -7.752013 -3.450553 -0.236729 -0.546927 0.000000 0.000000 0.000000 -2.037360 -2.453739 4.081381 -72.591803 -6.738792 10.812394 -2.471002 -16.477068 -0.002179 1.906050 -1.670846 -0.030729 -0.061319 0.141588 -0.000000 0.000000 0.000000 0.000000 0.000000 0.000000 0.000000 17.070462 -1.374420 3.671785 70.699414 11.286353 -1.579225 2.126197 17.285443 0.002268 -2.355119 7.429663 -0.161923 0.077039 -0.207257 0.000000 0.000000 0.000000 0.000000 0.000000 0.000000 0.000000 
16.318335 15.908230 2.079378 134.651136 -84.157567 -79.832394 0.250751 -1.687949 -4.105022 -0.907670 -1.912829 -4.094836 -5.758153 -2.147323 -0.047723 8.742276 -3.099654 -7.924239 -3.435015 -0.233027 -0.613398 0.000000 0.000000 0.000000 -2.082326 -2.507886 4.138871 -72.466915 -6.460028 11.570990 -2.455838 -17.017281 -0.001900 1.723946 -1.591210 -0.026623 -0.060029 0.143619 -0.000000 0.000000 0.000000 0.000000 0.000000 0.000000 0.000000 17.140250 -1.441637 3.738762 70.564001 10.835882 -0.976080 2.104056 17.733531 0.002241 -2.278029 7.339758 -0.154921 0.076226 -0.209350 0.000000 0.000000 0.000000 0.000000 0.000000 0.000000 0.000000 
16.295479 15.781395 2.078471 132.343577 -84.072008 -76.583765 0.202164 -1.721752 -4.219962 -0.923666 -1.947216 -4.130278 -5.726267 -2.183413 -0.083644 8.740825 -3.214219 -8.089924 -3.420582 -0.229429 -0.678550 0.000000 0.000000 0.000000 -2.141229 -2.569583 4.195362 -72.318585 -6.201189 12.360538 -2.441375 -17.587835 -0.001608 1.551285 -1.534839 -0.023216 -0.058795 0.145986 -0.000000 0.000000 0.000000 0.000000 0.000000 0.000000 0.000000 17.209693 -1.503654 3.804291 70.426106 10.406762 -0.398253 2.080403 18.171277 0.002179 -2.223028 7.278221 -0.150118 0.075521 -0.211778 0.000000 0.000000 0.000000 0.000000 0.000000 0.000000 0.000000 
16.273358 15.647208 2.078019 130.055857 -83.990723 -73.402027 0.170980 -1.754450 -4.309143 -0.935974 -1.980934 -4.161605 -5.696854 -2.218842 -0.129311 8.735304 -3.297332 -8.237939 -3.408778 -0.226200 -0.738985 0.000000 0.000000 0.000000 -2.218220 -2.667697 4.251729 -72.144759 -5.930796 13.141994 -2.426204 -18.196957 -0.001316 1.392229 -1.504825 -0.020508 -0.057556 0.148696 -0.000000 0.000000 0.000000 0.000000 0.000000 0.000000 0.000000 17.278953 -1.534971 3.869422 70.288432 9.972225 0.098795 2.054329 18.601060 0.002095 -2.179118 7.244697 -0.146516 0.074726 -0.214596 0.000000 0.000000 0.000000 0.000000 0.000000 0.000000 0.000000 
16.251734 15.506156 2.078041 127.794271 -83.919365 -70.300098 0.162192 -1.785149 -4.371163 -0.943492 -2.013399 -4.188247 -5.671171 -2.253043 -0.183620 8.728170 -3.345916 -8.366330 -3.400628 -0.223457 -0.793958 0.000000 0.000000 0.000000 -2.317721 -2.800139 4.307247 -71.942994 -5.653830 13.908083 -2.410246 -18.831017 -0.001029 1.251439 -1.505873 -0.018498 -0.056349 0.151746 -0.000000 0.000000 0.000000 0.000000 0.000000 0.000000 0.000000 17.353640 -1.534013 3.933585 70.147653 9.538471 0.508524 2.026411 19.009071 0.001990 -2.144709 7.238452 -0.144213 0.073828 -0.217736 0.000000 0.000000 0.000000 0.000000 0.000000 0.000000 0.000000 
16.230269 15.358715 2.078554 125.561424 -83.863765 -67.281093 0.180506 -1.813842 -4.404528 -0.944959 -2.044888 -4.206860 -5.649985 -2.286144 -0.236170 8.726228 -3.389212 -8.485734 -3.396060 -0.221077 -0.846493 0.000000 0.000000 0.000000 -2.444841 -2.922361 4.359270 -71.709556 -5.424579 14.697639 -2.394901 -19.448570 -0.000759 1.135541 -1.543212 -0.017289 -0.055352 0.155107 -0.000000 0.000000 0.000000 0.000000 0.000000 0.000000 0.000000 17.445290 -1.533291 3.994361 69.991038 9.157895 0.891420 1.998979 19.357095 0.001858 -2.132428 7.260692 -0.143812 0.073101 -0.220993 0.000000 0.000000 0.000000 0.000000 0.000000 0.000000 0.000000 
16.209042 15.205674 2.079504 123.362137 -83.829626 -64.356074 0.229351 -1.838930 -4.409637 -0.939866 -2.074046 -4.219197 -5.635012 -2.316978 -0.292223 8.730131 -3.400858 -8.585856 -3.397152 -0.219362 -0.893396 0.000000 0.000000 0.000000 -2.602568 -3.061127 4.409068 -71.443547 -5.216438 15.467924 -2.379203 -20.052604 -0.000514 1.043224 -1.610902 -0.016578 -0.054471 0.158715 -0.000000 0.000000 0.000000 0.000000 0.000000 0.000000 0.000000 17.558800 -1.506509 4.053061 69.818205 8.807470 1.199404 1.971725 19.647620 0.001723 -2.122754 7.301666 -0.144009 0.072266 -0.224317 0.000000 0.000000 0.000000 0.000000 0.000000 0.000000 0.000000 
16.187725 15.047808 2.080812 121.201942 -83.820316 -61.531241 0.308999 -1.859846 -4.387767 -0.928323 -2.100372 -4.225147 -5.627483 -2.345110 -0.349974 8.744114 -3.379356 -8.666412 -3.405163 -0.218428 -0.934472 0.000000 0.000000 0.000000 -2.792904 -3.212165 4.456563 -71.144209 -5.039190 16.208907 -2.363430 -20.625772 -0.000296 0.971912 -1.701049 -0.016268 -0.053687 0.162467 -0.000000 0.000000 0.000000 0.000000 0.000000 0.000000 0.000000 17.704218 -1.453479 4.109734 69.622528 8.499649 1.434869 1.945535 19.864376 0.001603 -2.107161 7.352427 -0.143907 0.071253 -0.227554 0.000000 0.000000 0.000000 0.000000 0.000000 0.000000 0.000000 
16.165911 14.886099 2.082395 119.081212 -83.838329 -58.808506 0.418475 -1.876736 -4.340082 -0.910581 -2.123971 -4.224034 -5.628137 -2.370671 -0.405843 8.772097 -3.329361 -8.730324 -3.420863 -0.218309 -0.970485 0.000000 0.000000 0.000000 -3.016613 -3.361091 4.501718 -70.811967 -4.914664 16.918558 -2.348555 -21.143873 -0.000103 0.915617 -1.802786 -0.016158 -0.052986 0.166230 -0.000000 0.000000 0.000000 0.000000 0.000000 0.000000 0.000000 17.890032 -1.380100 4.164114 69.397171 8.256074 1.611170 1.921596 19.986687 0.001518 -2.079272 7.405246 -0.143006 0.070037 -0.230531 0.000000 0.000000 0.000000 0.000000 0.000000 0.000000 0.000000 
